<svg width="106" height="57" viewBox="0 0 106 57" fill="none" xmlns="http://www.w3.org/2000/svg">
<rect y="0.5" width="106" height="56" rx="10" fill="#F5F5F5"/>
<g clip-path="url(#clip0_7_3378)">
<path d="M53 16.5C46.3835 16.5 41 21.8835 41 28.5C41 35.1165 46.3835 40.5 53 40.5C59.6165 40.5 65 35.1165 65 28.5C65 21.8835 59.6165 16.5 53 16.5ZM53 18.3462C58.6187 18.3462 63.1538 22.8813 63.1538 28.5C63.1538 33.6071 59.4017 37.8065 54.5 38.5312V31.4351H57.3666L57.8173 28.5252H54.5V26.9315C54.5 25.7223 54.8935 24.649 56.0252 24.649H57.8425V22.107C57.5232 22.0645 56.8485 21.97 55.5709 21.97C52.9051 21.97 51.3413 23.3786 51.3413 26.5853V28.5216H48.601V31.4351H51.345V38.506C46.5196 37.7162 42.8462 33.553 42.8462 28.5C42.8462 22.8813 47.3813 18.3462 53 18.3462Z" fill="black"/>
</g>
<defs>
<clipPath id="clip0_7_3378">
<rect width="24" height="24" fill="white" transform="translate(41 16.5)"/>
</clipPath>
</defs>
</svg>
