<svg width="106" height="57" viewBox="0 0 106 57" fill="none" xmlns="http://www.w3.org/2000/svg">
<rect y="0.5" width="106" height="56" rx="10" fill="#F5F5F5"/>
<g clip-path="url(#clip0_7_3376)">
<path d="M48.2632 16.5C44.263 16.5 41 19.763 41 23.7632V33.2368C41 37.2365 44.2629 40.5 48.2632 40.5H57.7368C61.7366 40.5 65 37.2366 65 33.2368V23.7632C65 19.7629 61.7365 16.5 57.7368 16.5H48.2632ZM48.2632 18.3947H57.7368C60.7124 18.3947 63.1053 20.787 63.1053 23.7632V33.2368C63.1053 36.2122 60.7122 38.6053 57.7368 38.6053H48.2632C45.287 38.6053 42.8947 36.2124 42.8947 33.2368V23.7632C42.8947 20.7869 45.2869 18.3947 48.2632 18.3947ZM59.3158 20.9211C58.6179 20.9211 58.0526 21.4863 58.0526 22.1842C58.0526 22.8821 58.6179 23.4474 59.3158 23.4474C60.0137 23.4474 60.5789 22.8821 60.5789 22.1842C60.5789 21.4863 60.0137 20.9211 59.3158 20.9211ZM53 22.1842C49.5233 22.1842 46.6842 25.0233 46.6842 28.5C46.6842 31.9767 49.5233 34.8158 53 34.8158C56.4767 34.8158 59.3158 31.9767 59.3158 28.5C59.3158 25.0233 56.4767 22.1842 53 22.1842ZM53 24.0789C55.4525 24.0789 57.4211 26.0475 57.4211 28.5C57.4211 30.9525 55.4525 32.9211 53 32.9211C50.5475 32.9211 48.5789 30.9525 48.5789 28.5C48.5789 26.0475 50.5475 24.0789 53 24.0789Z" fill="black"/>
</g>
<defs>
<clipPath id="clip0_7_3376">
<rect width="24" height="24" fill="white" transform="translate(41 16.5)"/>
</clipPath>
</defs>
</svg>
