<svg width="106" height="52" viewBox="0 0 106 52" fill="none" xmlns="http://www.w3.org/2000/svg">
<path d="M16.5013 32.6083C7.53582 32.6083 0 25.4999 0 16.2716C0 7.04328 7.40668 0 16.5013 0C25.5959 0 32.998 7.10837 32.998 16.2716C32.998 25.4348 25.4622 32.6083 16.5013 32.6083ZM70.4603 31.9388L66.2727 35.5L62.2373 30.7162C59.839 31.9744 57.1746 32.6299 54.4709 32.6269C45.5101 32.6269 37.9742 25.5185 37.9742 16.2902C37.9742 7.06188 45.3809 0.0185966 54.4709 0.0185966C63.561 0.0185966 70.9999 7.10837 70.9999 16.2716C71.0127 20.3945 69.4522 24.3644 66.6417 27.3595L70.4603 31.9388ZM16.5013 4.68157C15.0011 4.69186 13.5178 5.00124 12.1367 5.5919C10.7557 6.18256 9.50416 7.04283 8.45434 8.12315C7.40451 9.20348 6.57708 10.4825 6.01973 11.8866C5.46237 13.2906 5.1861 14.792 5.20682 16.3042C5.20682 22.664 10.1277 27.9267 16.5013 27.9267C22.8749 27.9267 27.7912 22.6454 27.7912 16.3042C27.8119 14.7924 27.5358 13.2914 26.9787 11.8876C26.4217 10.4839 25.5946 9.20505 24.5453 8.12479C23.496 7.04453 22.245 6.18416 20.8645 5.59323C19.484 5.0023 18.0011 4.69247 16.5013 4.68157ZM54.4755 4.68157C52.9757 4.69247 51.4929 5.0023 50.1124 5.59323C48.7318 6.18416 47.4809 7.04453 46.4316 8.12479C45.3822 9.20505 44.5552 10.4839 43.9981 11.8876C43.4411 13.2914 43.1649 14.7924 43.1857 16.3042C43.1857 22.664 48.1065 27.9267 54.4755 27.9267C56.0657 27.9315 57.6384 27.5922 59.0874 26.9318L56.7999 24.2075L60.9875 20.6463L63.3626 23.4823C64.93 21.4146 65.7763 18.8831 65.7701 16.2809C65.7877 14.7707 65.5092 13.2718 64.9504 11.8705C64.3917 10.4691 63.5638 9.19281 62.5143 8.11496C61.4647 7.03711 60.2143 6.17893 58.8347 5.58972C57.4552 5.00051 55.9738 4.69188 54.4755 4.68157Z" fill="black"/>
<path d="M5.768 42H6.986V49H5.768V46.074H2.142V49H0.924V42H2.142V44.912H5.768V42ZM13.922 42H14.902V49H13.698V44.086L9.82002 49H8.84002V42H10.044V46.914L13.922 42ZM21.166 42H22.384V49H21.166V46.48C20.606 46.7227 19.976 46.844 19.276 46.844C18.38 46.844 17.6847 46.634 17.19 46.214C16.7047 45.7847 16.462 45.1547 16.462 44.324V42H17.68V44.254C17.68 44.7767 17.82 45.15 18.1 45.374C18.3894 45.598 18.8094 45.71 19.36 45.71C20.0227 45.71 20.6247 45.5887 21.166 45.346V42ZM25.0885 46.06C25.2099 46.6853 25.4945 47.1707 25.9425 47.516C26.3999 47.8613 26.9599 48.034 27.6225 48.034C28.5465 48.034 29.2185 47.6933 29.6385 47.012L30.6745 47.6C29.9932 48.6547 28.9665 49.182 27.5945 49.182C26.4839 49.182 25.5785 48.8367 24.8785 48.146C24.1879 47.446 23.8425 46.564 23.8425 45.5C23.8425 44.4453 24.1832 43.568 24.8645 42.868C25.5459 42.168 26.4279 41.818 27.5105 41.818C28.5372 41.818 29.3725 42.182 30.0165 42.91C30.6699 43.6287 30.9965 44.4967 30.9965 45.514C30.9965 45.6913 30.9825 45.8733 30.9545 46.06H25.0885ZM27.5105 42.966C26.8572 42.966 26.3159 43.1527 25.8865 43.526C25.4572 43.89 25.1912 44.38 25.0885 44.996H29.7645C29.6619 44.3333 29.4005 43.8293 28.9805 43.484C28.5605 43.1387 28.0705 42.966 27.5105 42.966ZM36.9887 42V43.176H33.6147V49H32.3967V42H36.9887ZM43.6914 48.118C42.9727 48.8273 42.1 49.182 41.0734 49.182C40.0467 49.182 39.174 48.8273 38.4554 48.118C37.746 47.4087 37.3914 46.536 37.3914 45.5C37.3914 44.464 37.746 43.5913 38.4554 42.882C39.174 42.1727 40.0467 41.818 41.0734 41.818C42.1 41.818 42.9727 42.1727 43.6914 42.882C44.41 43.5913 44.7694 44.464 44.7694 45.5C44.7694 46.536 44.41 47.4087 43.6914 48.118ZM41.0734 47.992C41.7734 47.992 42.3614 47.754 42.8374 47.278C43.3134 46.802 43.5514 46.2093 43.5514 45.5C43.5514 44.7907 43.3134 44.198 42.8374 43.722C42.3614 43.246 41.7734 43.008 41.0734 43.008C40.3827 43.008 39.7994 43.246 39.3234 43.722C38.8474 44.198 38.6094 44.7907 38.6094 45.5C38.6094 46.2093 38.8474 46.802 39.3234 47.278C39.7994 47.754 40.3827 47.992 41.0734 47.992ZM55.5433 42V49H54.3253V43.176H51.5673V46.032C51.5673 47.18 51.3339 47.9827 50.8673 48.44C50.4099 48.888 49.7613 49.0747 48.9213 49V47.852C49.3973 47.9173 49.7519 47.8147 49.9853 47.544C50.2279 47.264 50.3493 46.7507 50.3493 46.004V42H55.5433ZM62.4708 42H63.4508V49H62.2468V44.086L58.3688 49H57.3888V42H58.5928V46.914L62.4708 42ZM73.6769 42H74.8949V49H65.3049V42H66.5229V47.838H69.4909V42H70.7089V47.838H73.6769V42ZM81.6059 42H82.8239V49H81.6059V46.074H77.9799V49H76.7619V42H77.9799V44.912H81.6059V42ZM85.5319 46.06C85.6532 46.6853 85.9379 47.1707 86.3859 47.516C86.8432 47.8613 87.4032 48.034 88.0659 48.034C88.9899 48.034 89.6619 47.6933 90.0819 47.012L91.1179 47.6C90.4366 48.6547 89.4099 49.182 88.0379 49.182C86.9272 49.182 86.0219 48.8367 85.3219 48.146C84.6312 47.446 84.2859 46.564 84.2859 45.5C84.2859 44.4453 84.6266 43.568 85.3079 42.868C85.9892 42.168 86.8712 41.818 87.9539 41.818C88.9806 41.818 89.8159 42.182 90.4599 42.91C91.1132 43.6287 91.4399 44.4967 91.4399 45.514C91.4399 45.6913 91.4259 45.8733 91.3979 46.06H85.5319ZM87.9539 42.966C87.3006 42.966 86.7592 43.1527 86.3299 43.526C85.9006 43.89 85.6346 44.38 85.5319 44.996H90.2079C90.1052 44.3333 89.8439 43.8293 89.4239 43.484C89.0039 43.1387 88.5139 42.966 87.9539 42.966ZM97.432 42V43.176H94.058V49H92.84V42H97.432ZM104.135 48.118C103.416 48.8273 102.543 49.182 101.517 49.182C100.49 49.182 99.6174 48.8273 98.8987 48.118C98.1894 47.4087 97.8347 46.536 97.8347 45.5C97.8347 44.464 98.1894 43.5913 98.8987 42.882C99.6174 42.1727 100.49 41.818 101.517 41.818C102.543 41.818 103.416 42.1727 104.135 42.882C104.853 43.5913 105.213 44.464 105.213 45.5C105.213 46.536 104.853 47.4087 104.135 48.118ZM101.517 47.992C102.217 47.992 102.805 47.754 103.281 47.278C103.757 46.802 103.995 46.2093 103.995 45.5C103.995 44.7907 103.757 44.198 103.281 43.722C102.805 43.246 102.217 43.008 101.517 43.008C100.826 43.008 100.243 43.246 99.7667 43.722C99.2907 44.198 99.0527 44.7907 99.0527 45.5C99.0527 46.2093 99.2907 46.802 99.7667 47.278C100.243 47.754 100.826 47.992 101.517 47.992Z" fill="black"/>
</svg>
