<svg width="235" height="118" viewBox="0 0 235 118" fill="none" xmlns="http://www.w3.org/2000/svg">
<path d="M54.617 108.429C24.9425 108.429 0 84.9012 0 54.3567C0 23.8123 24.5151 0.5 54.617 0.5C84.719 0.5 109.219 24.0277 109.219 54.3567C109.219 84.6858 84.2763 108.429 54.617 108.429ZM233.214 106.213L219.353 118L205.997 102.166C198.059 106.331 189.24 108.5 180.291 108.49C150.632 108.49 125.689 84.9628 125.689 54.4183C125.689 23.8738 150.204 0.561552 180.291 0.561552C210.378 0.561552 235 24.0277 235 54.3567C235.042 68.0028 229.877 81.1427 220.575 91.0563L233.214 106.213ZM54.617 15.9954C49.6516 16.0294 44.7419 17.0534 40.1708 19.0084C35.5997 20.9634 31.4574 23.8108 27.9827 27.3865C24.5079 30.9622 21.7692 35.1956 19.9244 39.8429C18.0797 44.4901 17.1652 49.4594 17.2338 54.4645C17.2338 75.5147 33.5212 92.9335 54.617 92.9335C75.7128 92.9335 91.985 75.4532 91.985 54.4645C92.0535 49.4607 91.1396 44.4927 89.2958 39.8464C87.452 35.2002 84.7147 30.9674 81.2415 27.3919C77.7683 23.8164 73.6279 20.9687 69.0585 19.0128C64.4892 17.0569 59.5811 16.0314 54.617 15.9954ZM180.306 15.9954C175.342 16.0314 170.434 17.0569 165.865 19.0128C161.296 20.9687 157.155 23.8164 153.682 27.3919C150.209 30.9674 147.471 35.2002 145.628 39.8464C143.784 44.4927 142.87 49.4607 142.938 54.4645C142.938 75.5147 159.226 92.9335 180.306 92.9335C185.57 92.9493 190.775 91.8264 195.571 89.6406L188 80.6234L201.86 68.8365L209.721 78.223C214.909 71.3794 217.71 63.0005 217.69 54.3875C217.748 49.3889 216.826 44.4279 214.977 39.7895C213.127 35.1512 210.387 30.9269 206.913 27.3594C203.44 23.7918 199.301 20.9514 194.735 19.0012C190.169 17.051 185.265 16.0295 180.306 15.9954Z" fill="white"/>
</svg>
