<svg width="12" height="12" viewBox="0 0 12 12" fill="none" xmlns="http://www.w3.org/2000/svg">
<path d="M9.10795 5.21648C9.57359 4.75153 9.52627 3.94952 9.00268 3.42594C8.4791 2.90236 7.67744 2.85538 7.21215 3.32068C6.94538 3.58675 6.85246 3.9629 6.91521 4.33458C6.64506 4.21708 6.33036 4.14873 5.99971 4.14873C5.66905 4.14873 5.35435 4.21708 5.06899 4.34044L5.08421 4.33459C5.14661 3.9629 5.05369 3.58676 4.78727 3.32068C4.32163 2.85504 3.5186 2.90202 2.99673 3.4256C2.47486 3.94918 2.42549 4.75153 2.89112 5.21649C3.14794 5.474 3.50831 5.56898 3.86525 5.51994C3.72821 5.80934 3.6482 6.14867 3.6482 6.50669C3.6482 7.80539 4.70101 8.85819 5.99971 8.85819C7.29841 8.85819 8.35121 7.80539 8.35121 6.50669C8.35121 6.14867 8.2712 5.80934 8.12809 5.5056L8.13416 5.51994C8.49248 5.56898 8.85112 5.47398 9.10795 5.21648Z" stroke="black" stroke-width="0.857143" stroke-linejoin="round"/>
</svg>
