<svg width="106" height="57" viewBox="0 0 106 57" fill="none" xmlns="http://www.w3.org/2000/svg">
<rect y="0.5" width="106" height="56" rx="10" fill="#F5F5F5"/>
<path d="M61.1234 19.6875C60.8634 19.699 60.6211 19.7748 60.4078 19.861C60.208 19.9414 59.4446 20.2688 58.2422 20.7844C57.0387 21.3005 55.4452 21.9847 53.7453 22.7157C50.3456 24.1777 46.5234 25.8234 44.5656 26.6657C44.492 26.6973 44.2351 26.7794 43.9625 26.9922C43.6899 27.2051 43.4 27.6461 43.4 28.1375C43.4 28.5338 43.5889 28.9275 43.8266 29.1625C44.0643 29.3976 44.3158 29.5137 44.5313 29.6016C45.313 29.9206 47.7375 30.9127 48.1953 31.1C48.3564 31.5936 49.234 34.2781 49.4375 34.936C49.5717 35.3701 49.6994 35.6421 49.8656 35.8579C49.9488 35.9658 50.0454 36.0603 50.1625 36.1344C50.2093 36.164 50.2606 36.1869 50.3125 36.2079L50.3156 36.2094C50.3276 36.2142 50.3379 36.2224 50.35 36.2266C50.3729 36.2346 50.3882 36.2356 50.4188 36.2422C50.5406 36.2816 50.6636 36.3063 50.7734 36.3063C51.2416 36.3063 51.5281 36.0485 51.5281 36.0485L51.5453 36.036L53.9531 33.9532L56.8734 36.7157C56.9146 36.7738 57.298 37.3 58.1438 37.3C58.6459 37.3 59.0443 37.0481 59.3 36.7797C59.5557 36.5114 59.7151 36.2295 59.7828 35.875V35.8735C59.8462 35.5386 62.5375 21.7219 62.5375 21.7219L62.5328 21.7407C62.6116 21.3811 62.6322 21.0462 62.5453 20.7157C62.4584 20.3852 62.2293 20.0688 61.9453 19.8985C61.6613 19.7282 61.3835 19.6761 61.1234 19.6875ZM60.9734 21.3594C60.9696 21.3828 60.9763 21.371 60.9703 21.3985L60.9688 21.4079L60.9672 21.4172C60.9672 21.4172 58.3092 35.0571 58.2109 35.5766C58.2181 35.5374 58.1853 35.6154 58.1516 35.6625C58.1039 35.6297 58.0063 35.5875 58.0063 35.5875L57.9906 35.5704L54.0016 31.7969L51.1813 34.2344L52.0203 30.875C52.0203 30.875 57.2653 25.4457 57.5813 25.1297C57.8357 24.8769 57.8891 24.7888 57.8891 24.7016C57.8891 24.5848 57.8282 24.5 57.6922 24.5C57.5698 24.5 57.4052 24.619 57.3172 24.675C56.1707 25.4059 51.1375 28.3394 48.8813 29.6516C48.5227 29.5049 46.0317 28.4852 45.1875 28.1407C45.1939 28.1379 45.1918 28.1389 45.1984 28.136C47.1567 27.2935 50.9773 25.6478 54.3766 24.186C56.0762 23.4551 57.6709 22.7704 58.8734 22.2547C60.0574 21.747 60.8801 21.3976 60.9734 21.3594Z" fill="black"/>
</svg>
