<svg width="24" height="24" viewBox="0 0 24 24" fill="none" xmlns="http://www.w3.org/2000/svg">
<g clip-path="url(#clip0_36_2620)">
<path d="M0.879999 14.09L4.75 18C4.84296 18.0937 4.95357 18.1681 5.07542 18.2189C5.19728 18.2696 5.32799 18.2958 5.46 18.2958C5.59201 18.2958 5.72272 18.2696 5.84458 18.2189C5.96643 18.1681 6.07704 18.0937 6.17 18C6.35625 17.8126 6.46079 17.5592 6.46079 17.295C6.46079 17.0308 6.35625 16.7773 6.17 16.59L2.61 13L23 13C23.2652 13 23.5196 12.8946 23.7071 12.7071C23.8946 12.5195 24 12.2652 24 12V12C24 11.7348 23.8946 11.4804 23.7071 11.2929C23.5196 11.1053 23.2652 11 23 11L2.55 11L6.17 7.38998C6.26373 7.29701 6.33812 7.18641 6.38889 7.06456C6.43966 6.9427 6.4658 6.81199 6.4658 6.67998C6.4658 6.54797 6.43966 6.41726 6.38889 6.2954C6.33812 6.17354 6.26373 6.06294 6.17 5.96998C6.07704 5.87625 5.96643 5.80185 5.84457 5.75109C5.72272 5.70032 5.59201 5.67418 5.46 5.67418C5.32799 5.67418 5.19728 5.70032 5.07542 5.75109C4.95356 5.80185 4.84296 5.87625 4.75 5.96998L0.879998 9.84998C0.318197 10.4125 0.00263915 11.175 0.00263922 11.97C0.00263929 12.765 0.318197 13.5275 0.879999 14.09Z" fill="black" fill-opacity="0.5"/>
</g>
<defs>
<clipPath id="clip0_36_2620">
<rect width="24" height="24" fill="white" transform="translate(24 24) rotate(180)"/>
</clipPath>
</defs>
</svg>
